REM DIRINDEX 1\2,1\3
REM DIRNAME folder01,folder02,folder03
TITLE ""
FILE "CD1Track43.mp3" MP3
  TRACK 01 AUDIO
    TITLE "0:"
    INDEX 01 00:00:00
  TRACK 02 AUDIO
    TITLE "3:cjc102_2068"
    INDEX 01 00:00:25
  TRACK 03 AUDIO
    TITLE "0:"
    INDEX 01 00:01:22
  TRACK 04 AUDIO
    TITLE "2:cjc102_2069"
    INDEX 01 00:01:30
  TRACK 05 AUDIO
    TITLE "0:"
    INDEX 01 00:02:30
  TRACK 06 AUDIO
    TITLE "3:cjc102_2070"
    INDEX 01 00:03:04
  TRACK 07 AUDIO
    TITLE "0:"
    INDEX 01 00:03:64
  TRACK 08 AUDIO
    TITLE "2:cjc102_2071"
    INDEX 01 00:04:09
  TRACK 09 AUDIO
    TITLE "0:"
    INDEX 01 00:05:12
  TRACK 10 AUDIO
    TITLE "3:cjc102_2072"
    INDEX 01 00:06:41
  TRACK 11 AUDIO
    TITLE "0:"
    INDEX 01 00:07:39
  TRACK 12 AUDIO
    TITLE "2:cjc102_2073"
    INDEX 01 00:07:45
  TRACK 13 AUDIO
    TITLE "0:"
    INDEX 01 00:08:38
  TRACK 14 AUDIO
    TITLE "3:cjc102_2074"
    INDEX 01 00:09:34
  TRACK 15 AUDIO
    TITLE "0:"
    INDEX 01 00:10:31
  TRACK 16 AUDIO
    TITLE "2:cjc102_2075"
    INDEX 01 00:10:53
  TRACK 17 AUDIO
    TITLE "0:"
    INDEX 01 00:11:58
  TRACK 18 AUDIO
    TITLE "3:cjc102_2076"
    INDEX 01 00:12:60
  TRACK 19 AUDIO
    TITLE "0:"
    INDEX 01 00:13:39
  TRACK 20 AUDIO
    TITLE "2:cjc102_2077"
    INDEX 01 00:13:67
  TRACK 21 AUDIO
    TITLE "0:"
    INDEX 01 00:14:74
  TRACK 22 AUDIO
    TITLE "3:cjc102_2078"
    INDEX 01 00:15:54
  TRACK 23 AUDIO
    TITLE "0:"
    INDEX 01 00:16:42
  TRACK 24 AUDIO
    TITLE "2:cjc102_2079"
    INDEX 01 00:16:48
  TRACK 25 AUDIO
    TITLE "0:"
    INDEX 01 00:17:43
  TRACK 26 AUDIO
    TITLE "3:cjc102_2080"
    INDEX 01 00:19:05
  TRACK 27 AUDIO
    TITLE "0:"
    INDEX 01 00:19:67
  TRACK 28 AUDIO
    TITLE "2:cjc102_2081"
    INDEX 01 00:19:71
  TRACK 29 AUDIO
    TITLE "0:"
    INDEX 01 00:20:69
  TRACK 30 AUDIO
    TITLE "3:cjc102_2082"
    INDEX 01 00:22:01
  TRACK 31 AUDIO
    TITLE "0:"
    INDEX 01 00:22:62
  TRACK 32 AUDIO
    TITLE "2:cjc102_2083"
    INDEX 01 00:22:68
  TRACK 33 AUDIO
    TITLE "0:"
    INDEX 01 00:23:71
  TRACK 34 AUDIO
    TITLE "3:cjc102_2084"
    INDEX 01 00:25:17
  TRACK 35 AUDIO
    TITLE "0:"
    INDEX 01 00:26:09
  TRACK 36 AUDIO
    TITLE "2:cjc102_2085"
    INDEX 01 00:26:30
  TRACK 37 AUDIO
    TITLE "0:"
    INDEX 01 00:27:32
  TRACK 38 AUDIO
    TITLE "3:cjc102_2086"
    INDEX 01 00:28:21
  TRACK 39 AUDIO
    TITLE "0:"
    INDEX 01 00:29:17
  TRACK 40 AUDIO
    TITLE "2:cjc102_2087"
    INDEX 01 00:29:36
  TRACK 41 AUDIO
    TITLE "0:"
    INDEX 01 00:30:46
  TRACK 42 AUDIO
    TITLE "3:cjc102_2088"
    INDEX 01 00:31:37
  TRACK 43 AUDIO
    TITLE "0:"
    INDEX 01 00:32:41
  TRACK 44 AUDIO
    TITLE "2:cjc102_2089"
    INDEX 01 00:32:54
  TRACK 45 AUDIO
    TITLE "0:"
    INDEX 01 00:33:54
  TRACK 46 AUDIO
    TITLE "3:cjc102_2090"
    INDEX 01 00:34:24
  TRACK 47 AUDIO
    TITLE "0:"
    INDEX 01 00:35:41
  TRACK 48 AUDIO
    TITLE "2:cjc102_2091"
    INDEX 01 00:35:47
  TRACK 49 AUDIO
    TITLE "0:"
    INDEX 01 00:36:38
  TRACK 50 AUDIO
    TITLE "3:cjc102_2092"
    INDEX 01 00:37:20
  TRACK 51 AUDIO
    TITLE "0:"
    INDEX 01 00:38:41
  TRACK 52 AUDIO
    TITLE "2:cjc102_2093"
    INDEX 01 00:38:59
  TRACK 53 AUDIO
    TITLE "0:"
    INDEX 01 00:39:60
  TRACK 54 AUDIO
    TITLE "3:cjc102_2094"
    INDEX 01 00:40:54
  TRACK 55 AUDIO
    TITLE "0:"
    INDEX 01 00:41:71
  TRACK 56 AUDIO
    TITLE "2:cjc102_2095"
    INDEX 01 00:41:73
  TRACK 57 AUDIO
    TITLE "0:"
    INDEX 01 00:42:74
  TRACK 58 AUDIO
    TITLE "3:cjc102_2096"
    INDEX 01 00:44:30
  TRACK 59 AUDIO
    TITLE "0:"
    INDEX 01 00:45:35
  TRACK 60 AUDIO
    TITLE "2:cjc102_2097"
    INDEX 01 00:45:37
  TRACK 61 AUDIO
    TITLE "0:"
    INDEX 01 00:46:39
  TRACK 62 AUDIO
    TITLE "3:cjc102_2098"
    INDEX 01 00:47:34
  TRACK 63 AUDIO
    TITLE "0:"
    INDEX 01 00:48:42
  TRACK 64 AUDIO
    TITLE "2:cjc102_2099"
    INDEX 01 00:48:44
  TRACK 65 AUDIO
    TITLE "0:"
    INDEX 01 00:49:41
  TRACK 66 AUDIO
    TITLE "3:cjc102_2100"
    INDEX 01 00:50:68
  TRACK 67 AUDIO
    TITLE "0:"
    INDEX 01 00:52:14
  TRACK 68 AUDIO
    TITLE "2:cjc102_2101"
    INDEX 01 00:52:24
  TRACK 69 AUDIO
    TITLE "0:"
    INDEX 01 00:53:17
  TRACK 70 AUDIO
    TITLE "3:cjc102_2102"
    INDEX 01 00:54:34
  TRACK 71 AUDIO
    TITLE "0:"
    INDEX 01 00:55:51
  TRACK 72 AUDIO
    TITLE "2:cjc102_2103"
    INDEX 01 00:55:55
  TRACK 73 AUDIO
    TITLE "0:"
    INDEX 01 00:56:49
  TRACK 74 AUDIO
    TITLE "3:cjc102_2104"
    INDEX 01 00:57:29
  TRACK 75 AUDIO
    TITLE "0:"
    INDEX 01 00:58:42
  TRACK 76 AUDIO
    TITLE "2:cjc102_2105"
    INDEX 01 00:58:50
  TRACK 77 AUDIO
    TITLE "0:"
    INDEX 01 00:59:38
  TRACK 78 AUDIO
    TITLE "3:cjc102_2106"
    INDEX 01 01:00:49
  TRACK 79 AUDIO
    TITLE "0:"
    INDEX 01 01:01:62
  TRACK 80 AUDIO
    TITLE "2:cjc102_2107"
    INDEX 01 01:01:66
  TRACK 81 AUDIO
    TITLE "0:"
    INDEX 01 01:02:63
  TRACK 82 AUDIO
    TITLE "3:cjc102_2108"
    INDEX 01 01:03:41
  TRACK 83 AUDIO
    TITLE "0:"
    INDEX 01 01:04:68
  TRACK 84 AUDIO
    TITLE "2:cjc102_2109"
    INDEX 01 01:04:70
  TRACK 85 AUDIO
    TITLE "0:"
    INDEX 01 01:05:60
  TRACK 86 AUDIO
    TITLE "3:cjc102_2110"
    INDEX 01 01:07:31
  TRACK 87 AUDIO
    TITLE "0:"
    INDEX 01 01:08:52
  TRACK 88 AUDIO
    TITLE "2:cjc102_2111"
    INDEX 01 01:09:18
  TRACK 89 AUDIO
    TITLE "0:"
    INDEX 01 01:10:08
  TRACK 90 AUDIO
    TITLE "3:cjc102_2112"
    INDEX 01 01:11:29
  TRACK 91 AUDIO
    TITLE "0:"
    INDEX 01 01:12:56
  TRACK 92 AUDIO
    TITLE "2:cjc102_2113"
    INDEX 01 01:12:64
  TRACK 93 AUDIO
    TITLE "0:"
    INDEX 01 01:13:69
  TRACK 94 AUDIO
    TITLE "3:cjc102_2114"
    INDEX 01 01:15:03
  TRACK 95 AUDIO
    TITLE "0:"
    INDEX 01 01:16:24
  TRACK 96 AUDIO
    TITLE "2:cjc102_2115"
    INDEX 01 01:16:30
  TRACK 97 AUDIO
    TITLE "0:"
    INDEX 01 01:17:18
  TRACK 98 AUDIO
    TITLE "3:cjc102_2116"
    INDEX 01 01:18:33
  TRACK 99 AUDIO
    TITLE "0:"
    INDEX 01 01:19:48
  TRACK 100 AUDIO
    TITLE "2:cjc102_2117"
    INDEX 01 01:19:54
  TRACK 101 AUDIO
    TITLE "0:"
    INDEX 01 01:20:51
  TRACK 102 AUDIO
    TITLE "3:cjc102_2118"
    INDEX 01 01:21:27
  TRACK 103 AUDIO
    TITLE "0:"
    INDEX 01 01:22:62
  TRACK 104 AUDIO
    TITLE "2:cjc102_2119"
    INDEX 01 01:22:66
  TRACK 105 AUDIO
    TITLE "0:"
    INDEX 01 01:23:73
  TRACK 106 AUDIO
    TITLE "3:cjc102_2120"
    INDEX 01 01:24:53
  TRACK 107 AUDIO
    TITLE "0:"
    INDEX 01 01:26:11
  TRACK 108 AUDIO
    TITLE "2:cjc102_2121"
    INDEX 01 01:26:29
  TRACK 109 AUDIO
    TITLE "0:"
    INDEX 01 01:27:44
  TRACK 110 AUDIO
    TITLE "2:cjc102_2122"
    INDEX 01 01:28:04
  TRACK 111 AUDIO
    TITLE "0:"
    INDEX 01 01:29:15
  TRACK 112 AUDIO
    TITLE "3:cjc102_2123"
    INDEX 01 01:29:70
  TRACK 113 AUDIO
    TITLE "0:"
    INDEX 01 01:31:28
  TRACK 114 AUDIO
    TITLE "2:cjc102_2124"
    INDEX 01 01:31:34
  TRACK 115 AUDIO
    TITLE "0:"
    INDEX 01 01:32:43
  TRACK 116 AUDIO
    TITLE "2:cjc102_2125"
    INDEX 01 01:33:17
  TRACK 117 AUDIO
    TITLE "0:"
    INDEX 01 01:34:34
  TRACK 118 AUDIO
    TITLE "3:cjc102_2126"
    INDEX 01 01:35:29
  TRACK 119 AUDIO
    TITLE "0:"
    INDEX 01 01:36:60
  TRACK 120 AUDIO
    TITLE "2:cjc102_2127"
    INDEX 01 01:36:62
  TRACK 121 AUDIO
    TITLE "0:"
    INDEX 01 01:37:71
  TRACK 122 AUDIO
    TITLE "2:cjc102_2128"
    INDEX 01 01:38:51
  TRACK 123 AUDIO
    TITLE "0:"
    INDEX 01 01:39:63
  TRACK 124 AUDIO
    TITLE "3:cjc102_2129"
    INDEX 01 01:40:42
  TRACK 125 AUDIO
    TITLE "0:"
    INDEX 01 01:41:61
  TRACK 126 AUDIO
    TITLE "2:cjc102_2130"
    INDEX 01 01:42:28
  TRACK 127 AUDIO
    TITLE "0:"
    INDEX 01 01:43:41
  TRACK 128 AUDIO
    TITLE "2:cjc102_2131"
    INDEX 01 01:44:26
  TRACK 129 AUDIO
    TITLE "0:"
    INDEX 01 01:45:38
  TRACK 130 AUDIO
    TITLE "3:cjc102_2132"
    INDEX 01 01:45:67
  TRACK 131 AUDIO
    TITLE "0:"
    INDEX 01 01:47:15
  TRACK 132 AUDIO
    TITLE "2:cjc102_2133"
    INDEX 01 01:47:21
  TRACK 133 AUDIO
    TITLE "0:"
    INDEX 01 01:48:24
  TRACK 134 AUDIO
    TITLE "2:cjc102_2134"
    INDEX 01 01:49:14
  TRACK 135 AUDIO
    TITLE "0:"
    INDEX 01 01:50:27
  TRACK 136 AUDIO
    TITLE "3:cjc102_2135"
    INDEX 01 01:51:58
  TRACK 137 AUDIO
    TITLE "0:"
    INDEX 01 01:53:12
  TRACK 138 AUDIO
    TITLE "2:cjc102_2136"
    INDEX 01 01:53:14
  TRACK 139 AUDIO
    TITLE "0:"
    INDEX 01 01:54:31
  TRACK 140 AUDIO
    TITLE "2:cjc102_2137"
    INDEX 01 01:55:18
  TRACK 141 AUDIO
    TITLE "0:"
    INDEX 01 01:56:41
  TRACK 142 AUDIO
    TITLE "3:cjc102_2138"
    INDEX 01 01:57:31
  TRACK 143 AUDIO
    TITLE "0:"
    INDEX 01 01:58:72
  TRACK 144 AUDIO
    TITLE "2:cjc102_2139"
    INDEX 01 01:58:74
  TRACK 145 AUDIO
    TITLE "0:"
    INDEX 01 02:00:08
  TRACK 146 AUDIO
    TITLE "2:cjc102_2140"
    INDEX 01 02:01:03
  TRACK 147 AUDIO
    TITLE "0:"
    INDEX 01 02:02:09
  TRACK 148 AUDIO
    TITLE "3:cjc102_2141"
    INDEX 01 02:03:18
  TRACK 149 AUDIO
    TITLE "0:"
    INDEX 01 02:04:55
  TRACK 150 AUDIO
    TITLE "2:cjc102_2142"
    INDEX 01 02:05:05
  TRACK 151 AUDIO
    TITLE "0:"
    INDEX 01 02:06:20
  TRACK 152 AUDIO
    TITLE "2:cjc102_2143"
    INDEX 01 02:07:06
  TRACK 153 AUDIO
    TITLE "0:"
    INDEX 01 02:08:21
  TRACK 154 AUDIO
    TITLE "3:cjc102_2144"
    INDEX 01 02:08:74
  TRACK 155 AUDIO
    TITLE "0:"
    INDEX 01 02:10:28
  TRACK 156 AUDIO
    TITLE "2:cjc102_2145"
    INDEX 01 02:11:10
  TRACK 157 AUDIO
    TITLE "0:"
    INDEX 01 02:12:21
  TRACK 158 AUDIO
    TITLE "2:cjc102_2146"
    INDEX 01 02:12:72
  TRACK 159 AUDIO
    TITLE "0:"
    INDEX 01 02:14:12
